# xmcd
#
# Track frame offsets: 
#        150
#        20999
#        38552
#        74049
#        96705
#        114715
#        133648
#        145568
#        160239
#        176791
#        202373
#        226383
#        244325
#        253374
#        263749
#        282096
#
# Disc length: 4187 seconds
#
# Revision: 0
# Processed by: cddbd v1.5.2PL0 Copyright (c) Steve Scherf et al.
# Submitted via: ExactAudioCopyFreeDBPlugin 1.0
#
DISCID=03105910
DTITLE=Sonny Meadows - Devil Dancin' Down Main Street
DYEAR=1998
DGENRE=Blues
TTITLE0=Wally
TTITLE1=Dear Dr. Kevorkian
TTITLE2=Painful Attraction
TTITLE3=Eye For An Eye
TTITLE4=Sins of The World
TTITLE5=I Shoulda Been A Waiter
TTITLE6=Order Of Protection
TTITLE7=Read My Lips
TTITLE8=Wishin' Well
TTITLE9=Opening Day
TTITLE10=Coverband Land
TTITLE11=Sellin' Vacuums Door To Dooor
TTITLE12=San Diego Body Count Blues
TTITLE13=Laura
TTITLE14=Waitin' For My Amy
TTITLE15=CPU Blues
EXTD=
EXTT0=
EXTT1=
EXTT2=
EXTT3=
EXTT4=
EXTT5=
EXTT6=
EXTT7=
EXTT8=
EXTT9=
EXTT10=
EXTT11=
EXTT12=
EXTT13=
EXTT14=
EXTT15=
PLAYORDER=
